<?xml version="1.0" standalone="no"?>
<!DOCTYPE svg PUBLIC "-//W3C//DTD SVG 20010904//EN"
 "http://www.w3.org/TR/2001/REC-SVG-20010904/DTD/svg10.dtd">
<svg version="1.0" xmlns="http://www.w3.org/2000/svg"
 width="512.000000pt" height="512.000000pt" viewBox="0 0 512.000000 512.000000"
 preserveAspectRatio="xMidYMid meet">
<metadata>
Created by potrace 1.14, written by Peter Selinger 2001-2017
</metadata>
<g transform="translate(0.000000,512.000000) scale(0.100000,-0.100000)"
fill="#000000" stroke="none">
<path d="M2310 5093 c-889 -98 -1645 -626 -2030 -1418 -175 -359 -247 -668
-257 -1100 -6 -268 4 -361 68 -619 52 -206 114 -375 203 -551 305 -602 839
-1063 1473 -1271 257 -84 440 -114 733 -121 339 -8 564 25 873 127 357 119
678 315 956 585 415 403 662 888 757 1490 36 224 20 605 -37 875 -73 352 -236
709 -462 1009 -93 123 -306 342 -428 441 -376 303 -846 498 -1321 549 -90 10
-449 13 -528 4z m1526 -483 c300 -75 595 -359 660 -635 22 -97 15 -215 -19
-288 -151 -330 -672 -294 -1017 70 -90 95 -149 188 -188 295 -22 62 -26 90
-27 183 0 100 3 115 28 170 30 63 90 132 145 167 96 60 269 75 418 38z m-1709
-1225 c162 -51 296 -180 355 -340 30 -83 37 -250 13 -331 -71 -246 -287 -414
-532 -414 -156 0 -285 52 -392 158 -224 223 -227 565 -6 787 115 116 228 163
392 164 72 1 109 -5 170 -24z m945 -900 c311 -25 578 -66 868 -131 155 -35
199 -48 515 -144 147 -45 511 -173 521 -182 6 -7 -26 -120 -74 -263 -58 -175
-176 -414 -278 -567 -402 -597 -1003 -974 -1731 -1085 -167 -25 -508 -23 -688
5 -449 70 -843 243 -1195 526 -105 84 -303 285 -381 386 -119 153 -229 327
-294 462 -93 195 -202 526 -179 548 10 9 320 122 479 173 137 45 324 97 479
133 l120 28 20 -29 c97 -133 217 -236 352 -300 200 -95 438 -110 642 -41 147
50 254 119 364 234 70 73 168 219 168 249 0 17 62 17 292 -2z"/>
<path d="M1835 3267 c-147 -49 -253 -159 -290 -302 -51 -200 43 -404 231 -496
127 -63 302 -49 420 31 226 156 252 475 55 664 -87 82 -151 109 -276 113 -64
2 -114 -2 -140 -10z m287 -54 c81 -38 153 -110 192 -193 28 -59 31 -74 31
-165 0 -93 -2 -105 -33 -167 -41 -84 -128 -167 -209 -199 -45 -18 -78 -23
-149 -24 -84 0 -95 2 -166 38 -275 135 -302 506 -50 679 110 76 263 88 384 31z"/>
</g>
</svg>
